# Blender 3.1.0
# www.blender.org
mtllib Cinemachair.mtl
o Chair.001
v 18.401690 -1.066440 1.020764
v 18.394964 -0.977307 0.915147
v 18.415136 -0.984085 1.030196
v 18.374788 -1.632638 1.157682
v 18.346972 -1.744891 1.208440
v 18.412928 -1.750410 1.138643
v 18.341166 -1.628777 1.671632
v 18.374788 -1.566547 1.701506
v 18.346972 -1.711796 1.675477
v 18.912752 -1.632638 1.157682
v 18.946375 -1.628777 1.671632
v 18.912752 -1.566547 1.701506
v 18.940573 -1.744891 1.208440
v 18.940573 -1.711796 1.675477
v 18.874617 -1.750410 1.138643
v 18.825335 -0.916368 0.890735
v 18.466722 -0.945684 0.817942
v 18.820818 -0.945684 0.817942
v 18.462210 -0.916368 0.890735
v 18.643774 -0.923968 0.972243
v 18.464926 -0.917994 0.990342
v 18.822622 -0.917994 0.990342
v 18.643774 -0.990058 1.012095
v 18.872408 -0.984085 1.030196
v 18.885855 -1.066440 1.020764
v 18.912756 -1.590490 1.230683
v 18.374792 -1.590490 1.230683
v 18.940573 -1.667543 1.090335
v 18.346972 -1.667543 1.090335
v 18.400770 -1.005454 0.841886
v 18.892580 -0.977307 0.915147
v 18.886774 -1.005454 0.841886
v 18.341089 -1.755597 1.152152
v 18.341089 -1.755805 1.499242
v 18.341089 -1.458985 1.031470
v 18.341089 -1.459375 1.574929
v 18.246943 -1.458985 1.031470
v 18.246943 -1.459375 1.574929
v 18.246943 -1.755805 1.499242
v 18.246943 -1.755598 1.152152
v 18.408411 -1.623150 1.742793
v 18.412928 -1.706276 1.745275
v 18.874617 -1.706276 1.745275
v 18.879129 -1.623150 1.742793
v 18.250305 -1.449254 1.016089
v 18.337723 -1.765321 1.144687
v 18.337723 -1.449254 1.016089
v 18.250305 -1.765321 1.144687
v 18.250305 -1.449652 1.585648
v 18.337723 -1.449652 1.585648
v 18.337723 -1.765534 1.506143
v 18.250305 -1.765534 1.506143
v 18.246941 -1.755805 1.499242
v 18.246941 -1.459375 1.574929
v 18.246941 -1.458985 1.031470
v 18.246941 -1.755598 1.152152
v 18.341087 -1.458985 1.031470
v 18.341087 -1.755597 1.152152
v 18.341087 -1.459375 1.574929
v 18.341087 -1.755805 1.499242
v 18.886772 -1.009175 0.830610
v 18.346970 -1.671264 1.079061
v 18.940571 -1.671264 1.079061
v 18.400768 -1.009175 0.830610
v 18.820816 -0.949405 0.806668
v 18.466721 -0.949405 0.806668
v 18.886772 -1.005454 0.841885
v 18.940571 -1.667543 1.090335
v 18.820816 -0.945684 0.817942
v 18.466721 -0.945684 0.817942
v 18.346970 -1.667543 1.090335
v 18.400768 -1.005454 0.841885
v 18.874615 -1.706276 1.745275
v 18.940571 -1.711796 1.675477
v 18.940571 -1.744891 1.208440
v 18.874615 -1.750410 1.138642
v 18.412926 -1.706276 1.745275
v 18.412926 -1.750410 1.138642
v 18.346970 -1.711796 1.675477
v 18.346970 -1.744891 1.208440
vn -0.0073 0.0017 0.0066
vn -0.0055 0.0032 0.0078
vn -0.0092 0.0038 -0.0005
vn -0.0054 0.0059 -0.0061
vn -0.0031 0.0005 -0.0095
vn -0.0095 0.0007 -0.0031
vn -0.0094 0.0018 0.0029
vn -0.0051 0.0075 0.0042
vn -0.0093 -0.0005 0.0037
vn 0.0054 0.0059 -0.0061
vn 0.0051 0.0075 0.0042
vn 0.0094 0.0018 0.0029
vn 0.0093 -0.0005 0.0037
vn 0.0095 0.0007 -0.0031
vn 0.0031 0.0005 -0.0095
vn 0.0036 0.0092 -0.0018
vn 0.0037 0.0086 -0.0037
vn -0.0037 0.0086 -0.0037
vn -0.0036 0.0092 -0.0018
vn -0.0026 0.0085 0.0046
vn -0.0000 0.0086 0.0050
vn 0.0026 0.0085 0.0046
vn -0.0000 0.0029 0.0096
vn 0.0055 0.0032 0.0078
vn 0.0070 0.0018 0.0069
vn 0.0054 -0.0025 0.0080
vn -0.0054 -0.0025 0.0080
vn 0.0071 -0.0055 0.0043
vn -0.0071 -0.0055 0.0043
vn -0.0092 0.0036 -0.0017
vn 0.0090 0.0044 -0.0004
vn 0.0090 0.0038 -0.0022
vn 0.0100 -0.0000 -0.0000
vn -0.0100 -0.0000 -0.0000
vn -0.0034 0.0024 0.0091
vn -0.0039 0.0001 0.0092
vn 0.0039 0.0001 0.0092
vn 0.0034 0.0024 0.0091
vn -0.0000 -0.0038 -0.0093
vn -0.0000 0.0100 -0.0000
vn -0.0000 0.0061 0.0079
vn -0.0000 -0.0024 0.0097
vn -0.0094 -0.0009 0.0034
vn -0.0094 -0.0008 0.0034
vn -0.0092 -0.0010 0.0037
vn -0.0092 -0.0010 0.0038
vn -0.0094 0.0033 -0.0000
vn -0.0095 0.0033 -0.0000
vn -0.0095 -0.0011 -0.0028
vn 0.0095 -0.0011 -0.0028
vn 0.0094 0.0033 -0.0000
vn 0.0095 0.0033 -0.0000
vn 0.0094 -0.0009 0.0034
vn 0.0092 -0.0010 0.0038
vn 0.0092 -0.0010 0.0037
vn 0.0094 -0.0008 0.0034
vn -0.0000 -0.0036 -0.0093
vn -0.0000 -0.0035 -0.0094
vn -0.0000 -0.0037 -0.0093
vn 0.0100 0.0007 -0.0002
vn 0.0100 0.0004 -0.0001
vn 0.0070 0.0068 -0.0022
vn -0.0000 0.0095 -0.0031
vn -0.0100 0.0007 -0.0002
vn -0.0070 0.0068 -0.0022
vn 0.0001 -0.0094 0.0035
vn -0.0000 -0.0095 0.0031
vn -0.0000 -0.0100 0.0007
vn -0.0000 -0.0058 -0.0082
vn -0.0000 -0.0061 0.0079
vn -0.0000 -0.0100 -0.0000
vt 0.183572 0.030851
vt 0.493104 0.455381
vt 0.531514 0.388790
vt 0.138555 0.037106
vt 0.470684 0.410828
vt 0.734783 0.954701
vt 0.000000 0.643675
vt 0.906198 0.306531
vt 0.662155 0.946726
vt 0.678230 1.000000
vt 0.838908 0.328043
vt 0.648252 0.686556
vt 0.000000 0.334681
vt 0.679228 0.657181
vt 0.602776 0.693282
vt 0.734783 0.047408
vt 0.303432 0.643675
vt 0.906198 0.609963
vt 0.645894 0.332166
vt 0.303432 0.334681
vt 0.678947 0.362997
vt 0.657947 0.056580
vt 0.597637 0.325604
vt 0.674440 0.000000
vt 0.838908 0.588453
vt 0.044254 0.269729
vt 0.791634 0.756573
vt 0.000000 0.067497
vt 0.575321 0.334681
vt 0.000000 0.267182
vt 0.837242 0.760472
vt 0.044254 0.064952
vt 0.529868 0.336719
vt 0.092791 0.167342
vt 0.097136 0.064600
vt 0.474276 0.356319
vt 0.097136 0.270083
vt 0.738223 0.736507
vt 0.138789 0.167342
vt 0.138555 0.297575
vt 0.734783 0.683867
vt 0.183572 0.303830
vt 0.755418 0.640402
vt 0.501862 0.318997
vt 0.747905 0.320363
vt 0.501862 0.015686
vt 0.485086 0.773724
vt 0.592134 0.334681
vt 0.838908 0.306531
vt 0.592134 0.000000
vt 0.575588 0.787637
vt 0.575588 0.388032
vt 0.795241 0.704867
vt 0.838908 0.707265
vt 0.734783 0.068189
vt 0.734806 0.263961
vt 0.902034 0.000000
vt 0.902034 0.306531
vt 0.470684 0.641212
vt 0.470684 0.334681
vt 0.303455 0.377251
vt 0.303432 0.573023
vt 0.641604 0.635914
vt 0.596769 0.638358
vt 0.592134 0.383881
vt 0.639416 0.385487
vt 0.854109 0.695528
vt 0.908481 0.907761
vt 0.908480 0.695528
vt 0.854109 0.907761
vt 0.854109 0.341280
vt 0.908480 0.341280
vt 0.908480 0.138684
vt 0.854109 0.138684
vt 0.848094 0.143504
vt 0.852016 0.131265
vt 0.848699 0.333789
vt 0.847704 0.347944
vt 0.847712 0.685958
vt 0.847204 0.704740
vt 0.847205 0.903909
vt 0.852017 0.915385
vt 0.852016 -0.084614
vt 0.915386 0.704740
vt 0.914878 0.685957
vt 0.915385 0.903909
vt 0.910573 0.915386
vt 0.910573 -0.084614
vt 0.914884 0.347942
vt 0.913890 0.333790
vt 0.914496 0.143504
vt 0.910573 0.131265
vt 0.125737 0.867995
vt 0.461198 0.428521
vt 0.092303 0.428522
vt 0.427765 0.867994
vt 0.166726 0.908008
vt 0.386779 0.908008
vt 0.118049 0.868277
vt 0.120358 0.873046
vt 0.084614 0.428805
vt 0.092303 0.421144
vt 0.161348 0.913058
vt 0.166726 0.915386
vt 0.386779 0.915385
vt 0.392157 0.913058
vt 0.468897 0.428803
vt 0.461198 0.421144
vt 0.435465 0.868276
vt 0.433145 0.873045
vt 0.468897 0.874363
vt 0.512445 0.915386
vt 0.803657 0.915386
vt 0.847204 0.874363
vt 0.468897 0.587206
vt 0.847204 0.587206
vt 0.512445 0.546183
vt 0.803657 0.546183
s 1
usemtl NEW
f 1/2/1 3/5/2 2/3/3
f 4/6/4 6/10/5 5/9/6
f 4/6/4 5/9/6 7/12/7
f 7/12/7 8/14/8 4/6/4
f 7/12/7 5/9/6 9/15/9
f 10/16/10 12/21/11 11/19/12
f 11/19/12 14/23/13 13/22/14
f 11/19/12 13/22/14 10/16/10
f 10/16/10 13/22/14 15/24/15
f 16/26/16 18/30/17 17/28/18
f 17/28/18 19/32/19 16/26/16
f 19/32/19 21/35/20 20/34/21
f 20/34/21 16/26/16 19/32/19
f 20/34/21 22/37/22 16/26/16
f 21/35/20 3/4/2 23/39/23
f 23/39/23 20/34/21 21/35/20
f 22/37/22 20/34/21 23/39/23
f 23/39/23 24/40/24 22/37/22
f 25/42/25 24/40/24 23/39/23
f 25/42/25 23/39/23 1/1/1
f 23/39/23 3/4/2 1/1/1
f 26/44/26 25/42/25 1/1/1
f 1/1/1 27/46/27 26/44/26
f 27/46/27 28/48/28 26/44/26
f 27/46/27 29/50/29 28/48/28
f 27/47/27 1/2/1 29/51/29
f 30/52/30 29/51/29 1/2/1
f 1/2/1 2/3/3 30/52/30
f 3/5/2 21/36/20 2/3/3
f 2/3/3 21/36/20 19/33/19
f 30/52/30 2/3/3 19/33/19
f 19/33/19 17/29/18 30/52/30
f 25/43/25 26/45/26 28/49/28
f 28/49/28 31/53/31 25/43/25
f 31/53/31 28/49/28 32/54/32
f 24/41/24 25/43/25 31/53/31
f 31/53/31 32/54/32 18/31/17
f 18/31/17 16/27/16 31/53/31
f 31/53/31 22/38/22 24/41/24
f 16/27/16 22/38/22 31/53/31
f 33/55/33 35/57/33 34/56/33
f 35/57/33 36/58/33 34/56/33
f 37/59/34 39/61/34 38/60/34
f 40/62/34 39/61/34 37/59/34
f 12/20/11 10/17/10 4/7/4
f 4/7/4 8/13/8 12/20/11
f 8/14/8 7/12/7 41/63/35
f 41/63/35 7/12/7 9/15/9
f 9/15/9 42/64/36 41/63/35
f 41/63/35 42/64/36 43/65/37
f 43/65/37 44/66/38 41/63/35
f 12/21/11 8/14/8 41/63/35
f 41/63/35 44/66/38 12/21/11
f 44/66/38 43/65/37 14/23/13
f 14/23/13 11/19/12 44/66/38
f 11/19/12 12/21/11 44/66/38
f 10/18/10 15/25/15 6/11/5
f 6/11/5 4/8/4 10/18/10
f 45/67/39 47/69/39 46/68/39
f 46/68/39 48/70/39 45/67/39
f 47/69/40 45/67/40 49/71/41
f 49/71/41 50/72/41 47/69/40
f 51/73/42 50/72/41 49/71/41
f 49/71/41 52/74/42 51/73/42
f 53/75/43 52/74/44 49/71/45
f 49/71/45 54/77/46 53/75/43
f 55/79/47 54/78/48 49/71/48
f 49/71/48 45/67/47 55/79/47
f 55/80/49 45/67/49 48/70/49
f 48/70/49 56/81/49 55/80/49
f 57/84/50 58/86/50 46/68/50
f 46/68/50 47/69/50 57/84/50
f 57/85/51 47/69/51 50/72/52
f 50/72/52 59/89/52 57/85/52
f 60/91/53 59/90/54 50/72/55
f 50/72/55 51/73/56 60/91/53
f 61/93/57 63/95/58 62/94/58
f 62/94/58 64/96/57 61/93/57
f 65/97/59 61/93/57 64/96/57
f 64/96/57 66/98/59 65/97/59
f 67/99/60 68/101/61 63/95/60
f 63/95/60 61/93/60 67/99/60
f 69/103/62 67/100/62 61/93/62
f 61/93/62 65/97/62 69/103/62
f 66/98/63 70/105/63 69/104/63
f 69/104/63 65/97/63 66/98/63
f 64/96/64 62/94/64 71/107/64
f 71/107/64 72/109/64 64/96/64
f 66/98/65 64/96/65 72/110/65
f 72/110/65 70/106/65 66/98/65
f 68/102/66 62/94/67 63/95/67
f 68/102/66 71/108/67 62/94/67
f 73/111/68 75/113/68 74/112/68
f 75/113/68 73/111/68 76/114/68
f 76/114/68 73/111/68 77/115/68
f 76/114/68 77/115/68 78/116/68
f 78/116/68 77/115/68 79/117/68
f 78/116/68 79/117/68 80/118/68
f 51/73/69 53/76/69 60/92/69
f 51/73/69 52/74/69 53/76/69
f 46/68/70 56/82/70 48/70/70
f 46/68/70 58/87/70 56/82/70
f 58/88/71 53/76/71 56/83/71
f 58/88/71 60/92/71 53/76/71
